# xmcd
#
# Track frame offsets: 
#        150
#        15886
#        29648
#        45358
#        57771
#        66002
#        77051
#        97104
#        109213
#        124935
#        136847
#        148759
#        166874
#        179872
#        192245
#        204399
#        214897
#        230917
#        250639
#        261337
#
# Disc length: 3761 seconds
#
# Revision: 2
# Processed by: cddbd v1.5.2PL0 Copyright (c) Steve Scherf et al.
# Submitted via: ExactAudioCopy v0.99pb5
#
DISCID=250eaf14
DTITLE=Various Artist - Muziek voor Volwassenen Cd 1
DYEAR=2009
DGENRE=Oldies
TTITLE0=Eddie Floyd - Knock On Wood
TTITLE1=P.P. Arnold - The First Cut Is The Deepest
TTITLE2=Joe South - The Games People Play
TTITLE3=The Dixie Cups - Chapel Of Love
TTITLE4=Buddy Holly - Rave On
TTITLE5=The Yardbirds - Heart Full Of Soul
TTITLE6=James Brown - Georgia Lina Version
TTITLE7=Elvis Presley - Love Me Tender
TTITLE8=Billie Jo Spears - Blanket On The Ground
TTITLE9=Chuck Berry - Johnny B. Goode
TTITLE10=Bobby Hebb - Sunny
TTITLE11=Tony Burrows - United We Stand
TTITLE12=Freddy Fender - Silver Wings
TTITLE13=Nina Simone - Ain't No Use
TTITLE14=Merle Haggard - Okie From Muskogee
TTITLE15=Johnny Winter - Out Of Sight
TTITLE16=Randy Vanwarmer - Just When I Needed You Most
TTITLE17=Skeeter Davis - I Can't Stop Loving You
TTITLE18=Waylon Jenning - Dream Baby
TTITLE19=Eric Burdon - House Of The Rising Sun
EXTD=
EXTT0=
EXTT1=
EXTT2=
EXTT3=
EXTT4=
EXTT5=
EXTT6=
EXTT7=
EXTT8=
EXTT9=
EXTT10=
EXTT11=
EXTT12=
EXTT13=
EXTT14=
EXTT15=
EXTT16=
EXTT17=
EXTT18=
EXTT19=
PLAYORDER=
